<svg width="3648" height="994" viewBox="0 0 3648 994" fill="none" xmlns="http://www.w3.org/2000/svg">
<path d="M3515.09 456C3532.83 456 3549.49 459.404 3565.05 466.212C3580.61 472.776 3594.23 481.893 3605.9 493.563C3617.57 505.234 3626.68 518.85 3633.25 534.41C3640.05 549.97 3643.46 566.625 3643.46 584.373V597.867L3596.41 605.525V584.373C3596.41 572.703 3594.22 561.883 3589.85 551.915C3585.47 541.704 3579.52 532.829 3571.98 525.292C3564.44 517.755 3555.57 511.798 3545.36 507.422C3535.39 503.046 3524.57 500.857 3512.9 500.857H3483.72C3472.05 500.857 3461.11 503.046 3450.9 507.422C3440.93 511.798 3432.06 517.755 3424.28 525.292C3416.74 532.829 3410.78 541.704 3406.41 551.915C3402.03 561.883 3399.84 572.703 3399.84 584.373V594.22C3399.84 610.996 3403.37 625.097 3410.42 636.524C3417.47 647.952 3426.83 657.799 3438.5 666.065C3450.17 674.089 3463.3 681.14 3477.89 687.218C3492.72 693.053 3507.91 699.131 3523.47 705.452C3539.03 711.53 3554.11 718.338 3568.7 725.875C3583.53 733.169 3596.78 742.287 3608.45 753.228C3620.12 763.925 3629.48 777.055 3636.53 792.615C3643.58 808.176 3647.11 827.14 3647.11 849.508V865.189C3647.11 882.938 3643.46 899.592 3636.17 915.152C3629.11 930.713 3619.51 944.329 3607.35 955.999C3595.44 967.669 3581.46 976.908 3565.41 983.716C3549.61 990.28 3532.83 993.562 3515.09 993.562H3477.52C3459.77 993.562 3442.88 990.28 3426.83 983.716C3411.03 976.908 3397.05 967.669 3384.89 955.999C3372.98 944.329 3363.37 930.713 3356.08 915.152C3349.03 899.592 3345.5 882.938 3345.5 865.189V844.401L3392.55 836.743V865.189C3392.55 876.86 3394.86 887.8 3399.48 898.012C3404.34 907.98 3410.78 916.855 3418.81 924.635C3426.83 932.172 3436.07 938.129 3446.52 942.505C3457.22 946.881 3468.4 949.069 3480.08 949.069H3512.9C3524.57 949.069 3535.63 946.881 3546.08 942.505C3556.54 938.129 3565.78 932.172 3573.8 924.635C3581.83 916.855 3588.15 907.98 3592.77 898.012C3597.63 887.8 3600.06 876.86 3600.06 865.189V849.508C3600.06 831.516 3596.54 816.563 3589.48 804.649C3582.43 792.736 3573.07 782.646 3561.4 774.38C3549.73 765.87 3536.48 758.698 3521.65 752.863C3507.06 747.028 3491.99 741.193 3476.43 735.357C3460.87 729.522 3445.67 723.079 3430.84 716.028C3416.25 708.978 3403.12 700.225 3391.45 689.771C3379.78 679.073 3370.42 666.065 3363.37 650.748C3356.32 635.431 3352.8 616.588 3352.8 594.22V584.373C3352.8 566.625 3356.08 549.97 3362.64 534.41C3369.45 518.85 3378.69 505.234 3390.36 493.563C3402.03 481.893 3415.65 472.776 3431.21 466.212C3447.01 459.404 3463.79 456 3481.53 456H3515.09Z" fill="#1C263A"/>
<path d="M171.663 456.234C190.338 456.234 208.079 459.818 224.722 467.066C240.141 473.572 253.857 482.503 265.758 493.84L268.12 496.145C280.555 508.58 290.253 523.083 297.191 539.53C304.443 556.175 308.023 573.917 308.023 592.596V625.94L232.387 637.667V592.596C232.387 584.763 231.114 577.659 228.667 571.157L227.541 568.408L227.489 568.28C224.55 561.421 220.743 555.469 216.078 550.33L214.025 548.18C209.116 543.271 203.409 539.216 196.809 536.028L193.925 534.716L193.86 534.684L193.797 534.658C186.559 531.481 178.556 529.812 169.604 529.812H138.755C129.816 529.812 121.66 531.478 114.124 534.703C106.551 538.041 99.8477 542.536 93.9404 548.231C88.355 553.831 83.8829 560.467 80.5342 568.28L80.502 568.345L80.4766 568.408C77.2998 575.645 75.63 583.644 75.6299 592.596V856.52C75.6299 865.458 77.2966 873.615 80.5215 881.15C83.8564 888.716 88.3495 895.411 94.0371 901.314C99.946 906.99 106.649 911.466 114.221 914.791C121.73 917.99 129.854 919.644 138.755 919.645H169.604C178.556 919.644 186.559 917.975 193.797 914.798L193.925 914.746C201.714 911.408 208.328 906.946 213.916 901.385C219.66 895.439 224.189 888.689 227.541 881.054C230.739 873.545 232.387 865.42 232.387 856.52V811.312L308.023 823.624V856.52L307.979 860.026C307.557 877.419 303.98 893.98 297.186 909.578C290.246 926.027 280.556 940.54 268.12 952.977C255.726 965.37 241.281 975.146 224.915 982.306L224.824 982.351L224.729 982.39C208.074 989.416 190.332 992.88 171.663 992.88H136.702C118.032 992.88 100.207 989.414 83.373 982.422L83.2373 982.37L83.1025 982.306C67.7609 975.593 54.1108 966.58 42.2529 955.268L39.9033 952.977C27.5097 940.583 17.7283 926.137 10.5684 909.771L10.5293 909.681L10.4912 909.585C3.46513 892.931 4.53083e-05 875.189 0 856.52V592.596C0.000134594 573.927 3.46525 556.184 10.4912 539.53L10.5293 539.439L10.5684 539.344C17.728 522.979 27.5103 508.538 39.9033 496.145C52.3397 483.708 66.8471 474.006 83.2959 467.066C100.141 459.828 117.994 456.234 136.702 456.234H171.663Z" fill="#1C263A"/>
<path fill-rule="evenodd" clip-rule="evenodd" d="M2420.48 463.293C2438.23 463.293 2454.88 466.697 2470.44 473.505C2486 480.069 2499.62 489.186 2511.29 500.856C2522.96 512.527 2532.08 526.264 2538.64 542.067C2545.45 557.628 2548.85 574.283 2548.85 592.031V634.336C2548.85 652.084 2545.45 668.861 2538.64 684.664C2532.08 700.224 2522.96 713.84 2511.29 725.51C2499.62 737.18 2486 746.419 2470.44 753.227C2454.88 759.791 2438.23 763.073 2420.48 763.073L2562.35 986.268H2508.01L2366.14 763.073H2301.59V986.268H2254.54V463.293H2420.48ZM2301.59 718.216H2418.29C2429.96 718.216 2440.78 716.028 2450.75 711.651C2460.96 707.275 2469.84 701.318 2477.37 693.781C2484.91 686.001 2490.87 677.127 2495.24 667.158C2499.62 656.947 2501.81 646.006 2501.81 634.336V592.031C2501.81 580.361 2499.62 569.541 2495.24 559.573C2490.87 549.362 2484.91 540.487 2477.37 532.95C2469.84 525.17 2460.96 519.091 2450.75 514.715C2440.78 510.339 2429.96 508.15 2418.29 508.15H2301.59V718.216Z" fill="#1C263A"/>
<path d="M2923.33 508.15H2676.07V702.534H2876.29V747.392H2676.07V941.41H2923.33V986.268H2629.02V463.293H2923.33V508.15Z" fill="#1C263A"/>
<path fill-rule="evenodd" clip-rule="evenodd" d="M3164.05 463.293C3181.8 463.293 3198.45 466.697 3214.01 473.505C3229.81 480.069 3243.55 489.186 3255.22 500.856C3266.89 512.527 3276.01 526.264 3282.57 542.067C3289.38 557.628 3292.78 574.283 3292.78 592.031V656.946C3292.78 674.695 3289.38 691.35 3282.57 706.91C3276.01 722.471 3266.89 736.086 3255.22 747.756C3243.55 759.426 3229.81 768.665 3214.01 775.473C3198.45 782.037 3181.8 785.32 3164.05 785.32H3045.52V986.268H2998.47V463.293H3164.05ZM3045.52 740.462H3161.86C3173.53 740.462 3184.35 738.274 3194.32 733.897C3204.53 729.521 3213.4 723.564 3220.94 716.027C3228.72 708.49 3234.8 699.738 3239.17 689.77C3243.55 679.558 3245.74 668.617 3245.74 656.946V592.031C3245.74 580.361 3243.55 569.542 3239.17 559.573C3234.8 549.362 3228.72 540.487 3220.94 532.95C3213.4 525.17 3204.53 519.091 3194.32 514.715C3184.35 510.339 3173.53 508.15 3161.86 508.15H3045.52V740.462Z" fill="#1C263A"/>
<path fill-rule="evenodd" clip-rule="evenodd" d="M917.294 463.109C936.041 463.11 953.848 466.72 970.546 474.025C985.891 480.524 999.536 489.424 1011.39 500.716L1013.75 503.02C1026.15 515.429 1035.82 529.991 1042.74 546.56C1050.05 563.259 1053.65 581.07 1053.65 599.818V639.574L1053.61 643.081C1053.19 660.557 1049.59 677.267 1042.77 693.09C1035.84 709.494 1026.15 723.963 1013.75 736.372C1001.35 748.765 986.911 758.548 970.546 765.708L970.353 765.785C961.928 769.339 953.227 771.977 944.268 773.721L1079.23 986.047H990.922L857.593 776.276H821.261V986.047H745.631V463.109H917.294ZM821.255 702.692H915.228C924.18 702.692 932.183 701.03 939.421 697.853L939.485 697.82L939.543 697.795C947.356 694.447 953.986 689.966 959.585 684.382C965.306 678.448 969.822 671.716 973.165 664.102C976.363 656.593 978.012 648.467 978.012 639.567V599.812C978.012 591.977 976.733 584.87 974.285 578.367L973.165 575.618L973.113 575.49C970.174 568.631 966.361 562.685 961.696 557.546L959.649 555.39L959.56 555.3L959.476 555.21C954.578 550.155 948.914 546.052 942.395 542.885L939.543 541.585L939.485 541.559L939.421 541.526C933.088 538.746 926.17 537.126 918.542 536.764L915.228 536.687H821.255V702.692Z" fill="#1C263A"/>
<path fill-rule="evenodd" clip-rule="evenodd" d="M2031.93 463.109C2050.68 463.11 2068.49 466.72 2085.19 474.025C2100.53 480.524 2114.18 489.424 2126.03 500.716L2128.38 503.02C2140.79 515.429 2150.46 529.99 2157.38 546.56C2164.69 563.259 2168.29 581.07 2168.29 599.818V639.574L2168.25 643.081C2167.83 660.557 2164.23 677.267 2157.41 693.09C2150.48 709.494 2140.79 723.963 2128.38 736.372C2115.99 748.765 2101.55 758.548 2085.19 765.708L2084.99 765.785C2076.57 769.339 2067.87 771.977 2058.91 773.721L2193.87 986.047H2105.56L1972.23 776.276H1935.9V986.047H1860.27V463.109H2031.93ZM1935.9 702.692H2029.87C2038.82 702.692 2046.82 701.03 2054.06 697.853L2054.13 697.82L2054.18 697.795C2062 694.447 2068.63 689.966 2074.23 684.382C2079.95 678.448 2084.46 671.716 2087.81 664.102C2091 656.593 2092.65 648.467 2092.65 639.567V599.812C2092.65 591.977 2091.37 584.87 2088.93 578.367L2087.81 575.618L2087.75 575.49C2084.81 568.631 2081 562.685 2076.34 557.546L2074.29 555.39L2074.2 555.3L2074.12 555.21C2069.22 550.155 2063.55 546.052 2057.04 542.885L2054.18 541.585L2054.13 541.559L2054.06 541.526C2047.73 538.746 2040.81 537.126 2033.18 536.764L2029.87 536.687H1935.9V702.692Z" fill="#1C263A"/>
<path fill-rule="evenodd" clip-rule="evenodd" d="M693.629 986.046H615.18L582.613 871.562H450.764L418.545 986.046H339.748L492.907 463.109H539.736L693.629 986.046ZM471.662 797.985H561.992L516.708 639.613L471.662 797.985Z" fill="#1C263A"/>
<path d="M1428.25 536.693H1203.86V687.96H1384.03V761.537H1203.86V912.469H1428.25V986.046H1128.22V463.109H1428.25V536.693Z" fill="#1C263A"/>
<path d="M1793.27 536.693H1568.88V687.96H1749.06V761.537H1568.88V912.469H1793.27V986.046H1493.25V463.109H1793.27V536.693Z" fill="#1C263A"/>
<path d="M3053.01 0C3095.76 0.986304 3131.57 21.9335 3165.32 23.7969C3187.44 23.8612 3210.38 17.2156 3236.46 16.9941C3240.83 17.0297 3245.36 17.3245 3249.97 18.1289C3304.27 31.5182 3332.09 77.8574 3375.8 96.3516C3408.02 113.776 3442.19 125.088 3476.85 140.235L3476.97 140.287C3477.01 140.305 3477.05 140.323 3477.1 140.341L3480.27 141.811C3529.93 164.826 3577.43 186.839 3630.31 192.841C3635.9 193.547 3641.5 194.14 3647.11 194.66V238.971C3640.79 238.558 3634.46 238.055 3628.12 237.415C3571.42 232.5 3517.64 211.478 3468.65 188.733L3468.41 188.628C3435.27 174.11 3399.17 167.855 3366.22 149.791C3322.69 130.676 3286.16 88.9062 3246.48 80.8906C3243.29 80.3218 3239.84 80.0671 3236.29 80.0332C3214.63 79.9786 3190.95 86.6301 3165.32 86.7109C3122.17 83.4998 3088.1 63.0757 3053.38 62.8145C3049.9 62.8797 3046.44 63.194 3042.99 63.7568C3017.08 68.1088 2990.41 87.2056 2959.26 94.1357C2913.64 105.107 2867.29 108.12 2820.94 106.482C2783.92 106.238 2754.13 85.9469 2723.93 88.1855C2688.66 87.3444 2657.64 115.383 2609.47 114.826C2572 111.29 2547.03 90.5198 2518.19 89.9668C2486.28 85.9695 2457.07 123.157 2408.16 127.804C2402.05 128.22 2395.92 128.553 2389.79 128.78C2363.52 129.956 2336.37 130.376 2311.05 129.087C2306.1 128.886 2301.12 128.921 2296.05 129.102C2275.61 129.745 2254.18 135.005 2230.36 138.877C2197.34 143.265 2173.24 139.367 2146.96 146.196C2103.39 156.471 2059.08 181.273 2012.86 198.021C2006.27 200.526 1999.7 202.921 1993.01 205.322C1901.86 236.791 1811.4 261.338 1715.91 281.053C1707.68 282.594 1699.47 283.993 1691.19 285.208C1632.79 294.355 1577.09 287.72 1521.68 293.103C1425.69 298.699 1331.49 318.013 1234.41 329.37C1115.05 340.44 996.886 330.024 879.417 316.631C872.977 315.839 866.632 315.031 860.272 314.194C747.037 298.06 634.587 285.936 521.3 278.688C515.382 278.248 509.768 277.845 503.899 277.443C396.433 268.744 287.011 280.525 176.957 280.493C125.435 281.103 74.205 282.426 22.8203 284.873C15.2134 285.238 7.6072 285.624 0 285.998V243.446C7.37548 243.038 14.7519 242.621 22.1309 242.221C73.5546 239.451 124.799 238.362 176.344 235.493C285.409 230.802 394.468 220.795 505.934 229.663C511.936 230.074 517.668 230.524 523.698 231.051C637.963 239.881 749.801 256.49 861.948 272.461C868.268 273.292 874.57 274.086 880.968 274.854C997.493 287.887 1116.52 294.799 1231.88 280.484C1326.71 266.503 1421.97 243.775 1519.45 236.131C1576.24 229.581 1633.8 235.243 1686.85 226.647C1694.72 225.494 1702.59 224.19 1710.55 222.771C1802.47 204.678 1895.53 171.041 1985.04 140.091C1991.58 137.741 1997.97 135.353 2004.23 132.862C2049.27 115.923 2088.93 89.1834 2139.37 73.5205C2167.86 64.1198 2201.32 65.6603 2224.17 61.1514C2245.59 56.8391 2269.02 50.1905 2294.74 49.2744C2301.1 49.0468 2307.57 49.2811 2314.04 50.0254C2339.79 53.2165 2363.9 57.727 2388.93 57.0098C2394.73 56.8811 2400.57 56.6493 2406.43 56.3398C2439.06 56.5932 2469.17 17.616 2520.65 20.5469C2556.48 22.809 2585.13 45.3333 2611.77 47.0859C2643.09 49.7655 2679.68 22.0772 2723.93 22.3223C2761.68 21.2589 2791.38 42.3408 2821.95 42.0889C2866.3 44.2604 2911.61 41.692 2954.47 31.6191C2982.43 25.8972 3006.16 7.64007 3039.8 1.20117C3044.15 0.489414 3048.58 0.0828765 3053.01 0Z" fill="#1C263A"/>
</svg>
